<svg width="18" height="18" viewBox="0 0 18 19" fill="none" xmlns="http://www.w3.org/2000/svg">
<path d="M10.5 2.25C8.09375 2.25 6.125 4.21875 6.125 6.625V8.375H7.875V6.625C7.875 5.18125 9.05625 4 10.5 4C11.9437 4 13.125 5.18125 13.125 6.625V8.375H14.875V6.625C14.875 4.21875 12.9062 2.25 10.5 2.25Z" fill="#424242"/>
<path d="M15.75 19.75H5.25C4.2875 19.75 3.5 18.9625 3.5 18V10.125C3.5 9.1625 4.2875 8.375 5.25 8.375H15.75C16.7125 8.375 17.5 9.1625 17.5 10.125V18C17.5 18.9625 16.7125 19.75 15.75 19.75Z" fill="#FB8C00"/>
<path d="M10.5 15.375C11.2249 15.375 11.8125 14.7874 11.8125 14.0625C11.8125 13.3376 11.2249 12.75 10.5 12.75C9.77513 12.75 9.1875 13.3376 9.1875 14.0625C9.1875 14.7874 9.77513 15.375 10.5 15.375Z" fill="#C76E00"/>
</svg>
