<?xml version="1.0" encoding="UTF-8" standalone="no"?>
<svg
    height="666.66669"
    id="svg2"
    sodipodi:docname="5219071.ai"
    version="1.1"
    viewBox="0 0 666.66669 666.66669"
    width="666.66669"
    xml:space="preserve"
    xmlns="http://www.w3.org/2000/svg"
    xmlns:cc="http://creativecommons.org/ns#"
    xmlns:dc="http://purl.org/dc/elements/1.1/"
    xmlns:inkscape="http://www.inkscape.org/namespaces/inkscape"
    xmlns:rdf="http://www.w3.org/1999/02/22-rdf-syntax-ns#"
    xmlns:sodipodi="http://sodipodi.sourceforge.net/DTD/sodipodi-0.dtd"
    xmlns:svg="http://www.w3.org/2000/svg"><metadata
     id="metadata8"><rdf:RDF><cc:Work
         rdf:about=""><dc:format>image/svg+xml</dc:format><dc:type
    rdf:resource="http://purl.org/dc/dcmitype/StillImage"/></cc:Work></rdf:RDF></metadata>
    <defs
        id="defs6"><clipPath
       clipPathUnits="userSpaceOnUse"
       id="clipPath20"><path
         d="M 0,500 H 500 V 0 H 0 Z"
         id="path18" /></clipPath></defs>
    <sodipodi:namedview
        bordercolor="#666666"
        borderopacity="1"
        gridtolerance="10"
        guidetolerance="10"
        id="namedview4"
        inkscape:pageopacity="0"
        inkscape:pageshadow="2"
        inkscape:window-height="480"
        inkscape:window-width="640"
        objecttolerance="10"
        pagecolor="#ffffff"/>
    <g
        id="g10"
        inkscape:groupmode="layer"
        inkscape:label="5219071"
        transform="matrix(1.3333333,0,0,-1.3333333,0,666.66667)"><path
       d="M 0,0 H 500 V 500 H 0 Z"
       id="path12"
       style="fill:#111013;fill-opacity:1;fill-rule:nonzero;stroke:none" />
        <g
            id="g14"><g
         clip-path="url(#clipPath20)"
         id="g16"><g
           id="g22"
           transform="translate(414.4668,97.6699)"><path
             d="m 0,0 c -10.479,-10.609 -18.88,-16.399 -18.88,-16.399 h -279.79 c 0,0 -30.09,14.04 -61.6,65.099 -10.689,17.321 -15.15,38.76 -14.47,60.1 1.31,41.57 22.13,82.76 54.42,92.4 48.87,14.58 50,66.77 113.07,82.46 63.07,15.68 100.341,-20.33 100.341,-20.33 C -45.29,210.51 22.88,185.07 38.37,109.391 c 0.271,-1.33 0.521,-2.661 0.731,-3.971 C 47.101,57.37 19.83,20.061 0,0"
             id="path24"
             style="fill:#111013;fill-opacity:1;fill-rule:nonzero;stroke:none" /></g><g
            id="g26"
            transform="translate(414.4668,94.0664)"><path
             d="M 0,0 C -9.35,-5.64 -20.199,-11.22 -32.729,-16.4 H -298.67 c 0,0 -30.09,14.04 -61.6,65.1 -10.689,17.32 -15.15,38.76 -14.47,60.1 28.73,-23.22 91.47,-58.361 207.6,-57.75 C -54.31,51.64 8.82,83.38 39.101,105.42 47.101,57.37 19.83,20.06 0,0"
             id="path28"
             style="fill:#111013;fill-opacity:1;fill-rule:nonzero;stroke:none" /></g><g
            id="g30"
            transform="translate(118.8315,97.1221)"><path
             d="m 0,0 c 0,0 -50.744,-0.79 -60.502,-7.675 -9.759,-6.885 -8.588,-17.25 76.457,-24.753 85.045,-7.504 57.498,-12.501 122.346,-12.013 64.85,0.488 125.176,15.623 162.258,22.02 37.082,6.398 28.459,21.671 -27.244,25.257 C 217.613,6.422 49.768,-6.422 0,0"
             id="path32"
             style="fill:#e7a69a;fill-opacity:1;fill-rule:nonzero;stroke:none" /></g><g
            id="g34"
            transform="translate(157.8794,122.8984)"><path
             d="m 0,0 c 4.496,-12.689 -2.137,-26.604 -15.03,-31.171 -12.691,-4.497 -26.605,2.137 -31.101,14.826 -4.568,12.893 2.065,26.807 14.756,31.303 C -18.482,19.526 -4.568,12.893 0,0 m -98.095,82.301 c -11.234,1.234 -18.5,12.503 -14.95,23.232 4.136,12.503 14.124,27.428 37.593,35.743 30.217,10.707 64.205,0.531 74.269,-27.873 6.995,-19.742 -3.428,-37.04 -19.841,-52.15 -4.177,-2.536 -4.121,-8.667 -2.792,-14.649 1.92,-8.65 -3.052,-17.351 -11.402,-20.31 -9.208,-3.263 -19.317,1.557 -22.579,10.765 l -1.873,5.285 c -3.141,8.864 -5.308,16.259 1.687,25.312 9.505,12.211 20.774,16.884 15.706,31.187 -3.426,9.669 -13.105,13.948 -22.17,10.736 -8.266,-2.93 -12.721,-8.926 -14.865,-15.292 -2.666,-7.912 -10.483,-12.898 -18.783,-11.986"
             id="path36"
             style="fill:#ffffff;fill-opacity:1;fill-rule:nonzero;stroke:none" /></g><g
            id="g38"
            transform="translate(375.8857,111.8008)"><path
             d="m 0,0 c -3.422,-12.116 -16.002,-19.156 -28.312,-15.68 -12.119,3.423 -19.158,16.003 -15.736,28.12 3.477,12.311 16.057,19.35 28.175,15.928 C -3.563,24.892 3.477,12.311 0,0 m -30.435,115.821 c -7.91,7.011 -7.37,19.538 1.136,25.813 9.911,7.311 25.599,13.311 48.008,6.982 C 47.563,140.468 68.014,114.339 60.354,87.218 55.031,68.367 37.729,60.791 17.036,58.12 12.478,58.44 9.209,53.729 6.991,48.444 3.785,40.805 -4.711,36.847 -12.685,39.099 c -8.792,2.482 -13.906,11.623 -11.423,20.415 l 1.425,5.047 c 2.391,8.462 4.73,15.279 14.961,18.413 13.853,4.188 24.98,1.669 28.837,15.325 2.608,9.233 -2.47,17.728 -11.127,20.173 -7.892,2.229 -14.532,0.056 -19.608,-3.645 -6.31,-4.601 -14.971,-4.185 -20.815,0.994"
             id="path40"
             style="fill:#ffffff;fill-opacity:1;fill-rule:nonzero;stroke:none" /></g><g
            id="g42"
            transform="translate(63.3887,118.2598)"><path
             d="m 0,0 c 0,0 -5.016,17.307 -15.55,19.563 -10.534,2.257 -7.217,5.016 -9.251,10.785 -2.035,5.769 -4.794,7.273 -8.556,8.026 -3.763,0.752 -3.01,10.534 -8.277,11.788 -5.267,1.254 1.505,-12.541 0,-20.315 -1.505,-7.776 4.264,-6.522 7.273,-15.55 3.01,-9.029 0,-14.798 3.762,-21.82 3.763,-7.023 8.797,-0.343 10.535,-10.033 1.737,-9.69 14.546,-15.299 24.579,-14.046 10.032,1.255 11.223,2.994 11.223,2.994 z"
             id="path44"
             style="fill:#ff9990;fill-opacity:1;fill-rule:nonzero;stroke:none" /></g><g
            id="g46"
            transform="translate(65.0352,93.6807)"><path
             d="m 0,0 c 0,0 -18.852,15.302 -18.432,27.48 0.42,12.179 1.979,14.577 -2.98,21.897 -4.959,7.321 -0.344,16.77 2.782,24.459 3.127,7.688 -7.317,13.702 -0.726,21.318 6.591,7.616 22.118,-8.629 23.95,-23.637 1.833,-15.01 5.202,-19.335 14.103,-25.938 8.902,-6.602 10.533,-17.727 9.81,-24.08 -0.722,-6.353 9.905,-9.103 7.069,-25.545 0,0 -9.613,-5.308 -35.576,4.046"
             id="path48"
             style="fill:#cb7068;fill-opacity:1;fill-rule:nonzero;stroke:none" /></g><g
            id="g50"
            transform="translate(78.4634,92.0869)"><path
             d="m 0,0 c 0,0 -5.437,13.725 0,22.613 5.436,8.888 4.778,9.029 5.029,16.052 0.251,7.023 4.013,10.282 7.524,11.286 3.511,1.003 5.769,3.74 7.525,8.517 1.755,4.776 7.273,5.827 10.533,1.414 3.261,-4.413 -1.755,-16.953 0,-22.722 1.756,-5.769 1.004,-12.29 -1.254,-17.056 -2.257,-4.764 2.007,-8.527 0,-15.549 C 27.351,-2.468 24.467,-7.017 3.712,-6.749 Z"
             id="path52"
             style="fill:#ff9990;fill-opacity:1;fill-rule:nonzero;stroke:none" /></g><g
            id="g54"
            transform="translate(108.4136,73.1885)"><path
             d="M 0,0 C 0,0 1.679,4.931 9.944,6.921 18.208,8.91 25.643,1.55 26.381,-1.808 26.381,-1.808 7.619,-5.682 0,0"
             id="path56"
             style="fill:#e7a69a;fill-opacity:1;fill-rule:nonzero;stroke:none" /></g><g
            id="g58"
            transform="translate(397.6709,97.4277)"><path
             d="m 0,0 c 0,0 -0.878,28.948 22.814,52.2 23.694,23.252 49.814,19.369 49.814,19.369 0,0 1.06,-27.495 -18.177,-48.98 C 35.214,1.104 14.729,-5.154 14.729,-5.154 Z"
             id="path60"
             style="fill:#cb7068;fill-opacity:1;fill-rule:nonzero;stroke:none" /></g><g
            id="g62"
            transform="translate(412.4004,92.2734)"><path
             d="M 0,0 C 5.667,-1.849 12.479,-0.896 18.313,0.327 27.896,2.334 38.356,9.1 49.367,19.223 67.18,35.6 67.886,53.731 67.886,53.731 c 0,0 -28.73,-0.693 -47.291,-17.418 C 2.034,19.587 -7.239,2.533 -7.239,2.533 Z"
             id="path64"
             style="fill:#ff9990;fill-opacity:1;fill-rule:nonzero;stroke:none" /></g><g
            id="g66"
            transform="translate(190,95.7588)"><path
             d="m 0,0 c 0,0 2.571,11.77 16.571,15.484 14,3.714 16.858,-5.714 29.143,-1.714 12.286,4 11.143,9.53 26,8.336 C 86.571,20.913 88.571,11.77 98.286,13.77 108,15.77 115.708,9.102 115.997,3.578 115.997,3.578 50.571,-1.199 0,0"
             id="path68"
             style="fill:#ff9990;fill-opacity:1;fill-rule:nonzero;stroke:none" /></g><g
            id="g70"
            transform="translate(375.4893,356.0532)"><path
             d="m 0,0 c 0,-5.827 -4.724,-10.551 -10.551,-10.551 -5.827,0 -10.551,4.724 -10.551,10.551 0,5.827 4.724,10.551 10.551,10.551 C -4.724,10.551 0,5.827 0,0"
             id="path72"
             style="fill:#ffe1d5;fill-opacity:1;fill-rule:nonzero;stroke:none" /></g><g
            id="g74"
            transform="translate(436.6523,302.707)"><path
             d="m 0,0 c 0,-3.218 -2.609,-5.827 -5.827,-5.827 -3.219,0 -5.827,2.609 -5.827,5.827 0,3.218 2.608,5.827 5.827,5.827 C -2.609,5.827 0,3.218 0,0"
             id="path76"
             style="fill:#ffe1d5;fill-opacity:1;fill-rule:nonzero;stroke:none" /></g><g
            id="g78"
            transform="translate(149.0605,356.0532)"><path
             d="m 0,0 c 0,-5.827 -4.724,-10.551 -10.551,-10.551 -5.827,0 -10.551,4.724 -10.551,10.551 0,5.827 4.724,10.551 10.551,10.551 C -4.724,10.551 0,5.827 0,0"
             id="path80"
             style="fill:#ffe1d5;fill-opacity:1;fill-rule:nonzero;stroke:none" /></g><g
            id="g82"
            transform="translate(79.1387,304.4614)"><path
             d="m 0,0 c 0,-3.905 -3.165,-7.07 -7.069,-7.07 -3.905,0 -7.07,3.165 -7.07,7.07 0,3.904 3.165,7.069 7.07,7.069 C -3.165,7.069 0,3.904 0,0"
             id="path84"
             style="fill:#ffe1d5;fill-opacity:1;fill-rule:nonzero;stroke:none" /></g><g
            id="g86"
            transform="translate(293.3496,85.0684)"><path
             d="m 0,0 c 0,-4.156 -18.994,-7.525 -42.424,-7.525 -23.431,0 -42.425,3.369 -42.425,7.525 0,4.156 18.994,7.525 42.425,7.525 C -18.994,7.525 0,4.156 0,0"
             id="path88"
             style="fill:#d5938b;fill-opacity:1;fill-rule:nonzero;stroke:none" /></g><g
            id="g90"
            transform="translate(337.8369,367.5703)"><path
             d="m 0,0 c -0.399,14.94 -5.12,28.37 -12.99,39.75 -6.31,9.16 -14.65,16.99 -24.409,23.23 -17.531,11.26 -39.63,17.37 -62.621,16.76 -5.44,-0.15 -10.55,-0.6 -15.36,-1.32 -11.31,-1.68 -20.97,-4.83 -29.19,-8.87 h -0.01 c -14.13,-6.96 -24.03,-16.55 -30.91,-25.91 -5.15,-7.02 -6.58,-15.45 -4.85,-23.16 1.88,-8.44 7.53,-16 16.21,-19.92 12.28,-5.53 26.75,-1.78 34.78,9.03 4.66,6.28 11.08,11.66 19.6,14.31 3.29,1.02 6.88,1.63 10.81,1.74 15.51,0.42 28.22,-10.97 28.661,-27.51 0.619,-23.36 -17.231,-25.83 -36.831,-38.19 -0.93,-0.59 -1.86,-1.19 -2.79,-1.82 -15.24,-10.4 -15.6,-22.82 -15.19,-37.98 l 0.23,-9.04 c 0.41,-15.49 13.1,-27.77 28.51,-27.77 0.25,0 0.51,0 0.77,0.01 11.471,0.31 21.44,7.38 25.62,17.52 1.03,2.48 1.71,5.15 1.981,7.95 0.54,5.7 1.769,11.25 4.2,15.27 v 0.01 c 1.75,2.93 4.139,5.04 7.38,5.8 14.929,6.85 28.179,15.02 38.08,25.1 C -6.55,-33.03 0.49,-18.35 0,0 m -54.67,-174.53 c -0.08,2.929 -0.46,5.77 -1.13,8.5 -3.45,14.21 -14.42,25.219 -28.429,28.82 -3.541,0.92 -7.261,1.35 -11.111,1.25 -0.64,-0.02 -1.26,-0.05 -1.89,-0.101 -20.8,-1.54 -36.9,-19.159 -36.33,-40.569 0.58,-21.7 18.61,-38.8 40.32,-38.23 11.011,0.29 20.78,4.94 27.74,12.22 6.98,7.289 11.13,17.24 10.83,28.11"
             id="path92"
             style="fill:#ff6a6f;fill-opacity:1;fill-rule:nonzero;stroke:none" /></g><g
            id="g94"
            transform="translate(233.9971,268.6704)"><path
             d="M 0,0 C 9.669,-6.667 24.24,-8.25 33.88,-0.24 29.7,-10.38 19.73,-17.45 8.26,-17.76 8,-17.77 7.74,-17.77 7.49,-17.77 c -15.41,0 -28.1,12.28 -28.51,27.77 l -0.23,9.04 c -0.41,15.16 -0.05,27.58 15.19,37.98 0.93,0.63 1.86,1.23 2.79,1.82 19.6,12.36 37.45,14.83 36.831,38.19 -0.441,16.54 -13.151,27.93 -28.661,27.51 -3.93,-0.11 -7.52,-0.72 -10.81,-1.74 -8.52,-2.65 -14.94,-8.03 -19.6,-14.31 -8.03,-10.81 -22.5,-14.56 -34.78,-9.03 -8.68,3.92 -14.33,11.48 -16.21,19.92 8.81,-3.2 22.068,-6.791 33.65,2.05 31.068,23.714 66.43,32.784 88.71,-0.286 C 68.15,88.074 40.372,59.738 5.146,46.089 -12.174,39.379 -5.568,3.84 0,0"
             id="path96"
             style="fill:#e95c68;fill-opacity:1;fill-rule:nonzero;stroke:none" /></g><g
            id="g98"
            transform="translate(162.7783,398.8394)"><path
             d="M 0,0 C 0,0 -2.689,-16.788 14.565,-23.317 31.819,-29.845 43.711,-1.166 69.826,1.632 95.94,4.43 107.949,-10.026 111.271,-23.317"
             id="path100"
             style="fill:none;stroke:#ffb0b8;stroke-width:2;stroke-linecap:round;stroke-linejoin:round;stroke-miterlimit:10;stroke-dasharray:none;stroke-opacity:1" /></g><g
            id="g102"
            transform="translate(220.9458,300.0269)"><path
             d="m 0,0 c 0,0 -2.798,-17.874 3.031,-30.996 5.829,-13.123 28.446,-14.066 35.441,1.095 6.995,15.161 -2.011,21.545 18.114,32.226 20.125,10.682 26.887,17.094 30.385,21.116"
             id="path104"
             style="fill:none;stroke:#ffb0b8;stroke-width:2;stroke-linecap:round;stroke-linejoin:round;stroke-miterlimit:10;stroke-dasharray:none;stroke-opacity:1" /></g><g
            id="g106"
            transform="translate(221.8228,439.4102)"><path
             d="m 0,0 c 0,0 52.56,7.742 84.695,-22.151 32.136,-29.892 17.264,-71.757 17.264,-71.757"
             id="path108"
             style="fill:none;stroke:#ff8e97;stroke-width:2;stroke-linecap:round;stroke-linejoin:round;stroke-miterlimit:10;stroke-dasharray:none;stroke-opacity:1" /></g><g
            id="g110"
            transform="translate(253.1807,331.8882)"><path
             d="M 0,0 C 0,0 23.259,9.942 22.384,34.599"
             id="path112"
             style="fill:none;stroke:#ff8e97;stroke-width:2;stroke-linecap:round;stroke-linejoin:round;stroke-miterlimit:10;stroke-dasharray:none;stroke-opacity:1" /></g><g
            id="g114"
            transform="translate(272.3369,164.9307)"><path
             d="M 0,0 C -6.96,-7.28 -16.729,-11.931 -27.74,-12.221 -49.45,-12.79 -67.48,4.31 -68.06,26.01 c -0.57,21.41 15.53,39.029 36.33,40.569 0.63,0.051 1.25,0.08 1.89,0.101 3.85,0.099 7.57,-0.33 11.111,-1.25 -13.111,-2.031 -35.281,-9.08 -34.361,-33.481 1.32,-34.559 40.861,-32.84 51,-8.5 3.82,9.151 8.03,12.87 11.79,13.16 0.67,-2.729 1.05,-5.57 1.13,-8.5 C 11.13,17.239 6.98,7.289 0,0"
             id="path116"
             style="fill:#e95c68;fill-opacity:1;fill-rule:nonzero;stroke:none" /></g><g
            id="g118"
            transform="translate(274.7041,191.6748)"><path
             d="m 0,0 c 0,-17.313 -14.035,-31.349 -31.349,-31.349 -17.313,0 -31.348,14.036 -31.348,31.349 0,17.313 11.444,32.202 28.758,32.202"
             id="path120"
             style="fill:none;stroke:#ffb0b8;stroke-width:2;stroke-linecap:round;stroke-linejoin:round;stroke-miterlimit:10;stroke-dasharray:none;stroke-opacity:1" /></g><g
            id="g122"
            transform="translate(195.7935,79.4902)"><path
             d="m 0,0 c 0,-3.081 -12.938,-5.579 -28.898,-5.579 -15.96,0 -28.898,2.498 -28.898,5.579 0,3.08 12.938,5.578 28.898,5.578 C -12.938,5.578 0,3.08 0,0"
             id="path124"
             style="fill:#d5938b;fill-opacity:1;fill-rule:nonzero;stroke:none" /></g><g
            id="g126"
            transform="translate(178.1045,210.9336)"><path
             d="m 0,0 c -0.463,0.116 -1.331,-1.041 -1.331,-1.041 l -1.736,1.852 c 0,0 0.347,1.041 0.579,2.719 0.142,1.032 0.321,3.159 0.439,4.644 2.777,3.164 10.959,13.212 9.513,20.296 -1.735,8.506 -8.101,24.882 -8.101,24.882 -1.525,-0.024 -10.851,-5.266 -10.851,-5.266 l 8.537,-21.005 -4.589,-13.77 -0.072,0.044 -3.581,-8.564 c -0.719,-1.72 -0.396,-3.698 0.831,-5.101 0.76,-0.869 1.559,-1.699 2.029,-1.947 1.1,-0.578 6.308,-2.257 7.205,-1.735 0.897,0.52 1.938,2.951 1.938,2.951 0,0 -0.347,0.926 -0.81,1.041"
             id="path128"
             style="fill:#ffa18b;fill-opacity:1;fill-rule:nonzero;stroke:none" /></g><g
            id="g130"
            transform="translate(144.7412,99.001)"><path
             d="m 0,0 2.109,-13.933 8.538,3.228 L 10.023,0 Z"
             id="path132"
             style="fill:#ffa18b;fill-opacity:1;fill-rule:nonzero;stroke:none" /></g><g
            id="g134"
            transform="translate(172.0532,100.6211)"><path
             d="M 0,0 1.565,-10.433 12.602,-13.788 10.879,0 Z"
             id="path136"
             style="fill:#ffa18b;fill-opacity:1;fill-rule:nonzero;stroke:none" /></g><g
            id="g138"
            transform="translate(185.6553,95.4902)"><path
             d="m 0,0 c -7.125,-4.16 -15.619,-1.387 -15.619,-1.387 l -12.137,98.647 -1.377,-0.679 0.622,-37.875 0.181,-10.712 0.813,-49.754 c -7.431,-3.128 -14.317,0 -14.317,0 l -8.762,96.37 c -3.692,19.445 -0.305,35.447 -0.305,35.447 5.92,-0.317 35.818,-0.278 35.818,-0.278 0,0 5.815,-39.626 7.594,-51.715 0.459,-3.136 1.004,-7.766 1.588,-13.227 0.554,-5.251 1.157,-11.286 1.74,-17.513 C -2.037,24.896 0,0 0,0"
             id="path140"
             style="fill:#006a66;fill-opacity:1;fill-rule:nonzero;stroke:none" /></g><g
            id="g142"
            transform="translate(166.6162,284.3208)"><path
             d="M 0,0 C 0,0 9.579,-7.884 12.703,-21.309 L 3.792,-23.624 Z"
             id="path144"
             style="fill:#ff6a6f;fill-opacity:1;fill-rule:nonzero;stroke:none" /></g><g
            id="g146"
            transform="translate(154.8721,288.042)"><path
             d="m 0,0 c 0.289,-0.25 7.507,-1.791 10.876,-3.138 3.369,-1.348 6.834,-13.571 7.123,-20.887 0.289,-7.315 -2.197,-39.445 -2.197,-39.445 -3.243,-4.395 -35.751,0.977 -35.751,0.977 0,0 -8.734,31.967 -8.156,49.056 0.182,5.391 1.924,8.855 1.924,8.855 l 14.883,4.941 z"
             id="path148"
             style="fill:#ffd274;fill-opacity:1;fill-rule:nonzero;stroke:none" /></g><g
            id="g150"
            transform="translate(142.1675,285.3516)"><path
             d="M 0,0 C 0,0 4.236,-3.463 8.983,-3.463 13.731,-3.463 14.5,0.13 14.5,0.13 13.929,1.105 13.516,2.206 13.215,3.297 12.379,6.365 12.446,9.37 12.446,9.37 L 2.053,14.374 C 2.668,11.755 2.682,9.343 2.412,7.272 1.846,2.857 0,0 0,0"
             id="path152"
             style="fill:#ffa18b;fill-opacity:1;fill-rule:nonzero;stroke:none" /></g><g
            id="g154"
            transform="translate(144.5796,292.624)"><path
             d="M 0,0 C 1.99,-1.801 5.561,-4.079 10.803,-3.976 9.967,-0.908 10.034,2.097 10.034,2.097 L -0.359,7.101 C 0.256,4.482 0.27,2.07 0,0"
             id="path156"
             style="fill:#cb7068;fill-opacity:1;fill-rule:nonzero;stroke:none" /></g><g
            id="g158"
            transform="translate(136.873,309.5444)"><path
             d="M 0,0 C 1.528,0.632 2.825,-0.179 3.687,-1.042 3.293,1.392 3.115,4.025 3.24,6.866 c 0.385,8.726 16.684,8.983 20.534,7.186 3.85,-1.796 3.828,-12.252 3.786,-13.924 0,0 0.577,-9.689 -3.786,-14.823 -4.363,-5.133 -12.577,-3.722 -15.528,1.155 -0.681,1.124 -1.33,2.354 -1.928,3.682 -0.71,-0.1 -3.015,-0.231 -5.259,1.773 C -1.636,-5.679 -2.791,-1.155 0,0"
             id="path160"
             style="fill:#ffa18b;fill-opacity:1;fill-rule:nonzero;stroke:none" /></g><g
            id="g162"
            transform="translate(138.6118,323.5093)"><path
             d="m 0,0 c 0,0 0.254,3.646 3.556,4.861 3.301,1.215 4.777,-0.174 6.165,0.694 1.389,0.868 3.472,3.733 7.551,3.038 4.08,-0.695 5.122,-3.993 6.77,-3.038 1.65,0.955 4.774,0.347 6.337,-2.951 1.562,-3.298 -1.65,-4.6 -0.868,-5.989 0.781,-1.388 1.909,-2.257 0.868,-4.687 -1.042,-2.43 -2.517,-1.042 -2.517,-2.691 0,-1.649 -2.041,-3.074 -2.041,-3.074 0,0 -0.303,6.72 -0.997,8.108 0,0 -2.286,-2.575 -6.336,-1.909 -2.583,0.424 -3.009,-1.389 -4.398,-2.691 -1.389,-1.302 -6.481,-1.099 -6.481,-1.099 0,0 0.049,-6.105 -2.001,-7.667 -2.049,-1.563 -1.182,2.827 -3.66,4.089 -2.479,1.261 -4.118,0.338 -4.378,-2.614 -0.261,-2.951 3.517,-6.505 7.01,-6.203 0,0 1.144,-1.63 1.494,-2.943 0.349,-1.313 -0.106,-4.119 -0.106,-4.119 0,0 -12,7.797 -13.693,13.96 -1.692,6.162 0.738,9.461 0.738,9.461 0,0 -0.261,2.299 1.215,4.73 C -4.296,-0.304 0,0 0,0"
             id="path164"
             style="fill:#00425c;fill-opacity:1;fill-rule:nonzero;stroke:none" /></g><g
            id="g166"
            transform="translate(162.8716,289.2681)"><path
             d="m 0,0 c 0,0 0.304,0.998 0.347,1.539 0.044,0.541 -0.825,2.02 -0.825,2.02 0,0 0.217,0.564 0.261,1.358 0.044,0.794 0.564,3.372 -0.434,3.632 C -1.649,8.81 -2.604,3.819 -3.906,2.864 -5.208,1.91 -6.987,0.781 -6.857,1.042 c 0.13,0.26 0.086,2.039 0,2.56 -0.087,0.521 -0.868,2.083 -1.397,1.315 -0.53,-0.768 -1.641,-5.177 -1.294,-6.393 0.347,-1.215 1.129,-4.332 1.129,-4.332 l -0.738,-2.828 -7.378,-31.247 -6.423,11.023 -14.755,-5.04 c 0,0 11.283,-19.958 17.706,-22.388 2.16,-0.817 3.938,-1.078 5.359,-1.074 0.007,-10e-4 0.015,-0.005 0.023,-0.006 2.532,-0.255 7.291,0.733 10.242,7.156 2.951,6.422 1.822,41.068 1.822,41.068 l 0.304,1.115 c 0,0 1.693,2.951 1.954,3.296 0.262,0.343 0.086,1.825 0.086,1.825 0,0 0.477,0.521 0.566,1.172 C 0.437,-1.085 0,0 0,0"
             id="path168"
             style="fill:#ffa18b;fill-opacity:1;fill-rule:nonzero;stroke:none" /></g><g
            id="g170"
            transform="translate(146.2456,88.2959)"><path
             d="m 0,0 c 0,0 -0.058,-6.943 0,-8.101 0.058,-1.157 1.1,-3.414 3.993,-4.976 2.893,-1.563 6.654,-1.389 8.679,-1.157 2.026,0.231 3.588,0.868 4.167,1.851 0.578,0.984 -0.024,2.546 -1.083,4.398 -1.058,1.851 -3.488,2.43 -4.588,4.513 -1.1,2.083 -1.562,3.874 -2.141,4.34 C 8.448,1.334 5.722,1.196 4.684,0.656 3.646,0.116 2.488,-1.504 1.967,-1.504 1.447,-1.504 1.158,-0.058 0,0"
             id="path172"
             style="fill:#7e4e24;fill-opacity:1;fill-rule:nonzero;stroke:none" /></g><g
            id="g174"
            transform="translate(173.0342,90.7861)"><path
             d="m 0,0 c 0.11,-2.274 0.404,-6.847 1.044,-8.682 0,0 0.026,-1.177 3.44,-1.351 3.414,-0.174 7.15,-0.037 9.349,-0.443 2.198,-0.404 8.042,-0.173 8.968,0.463 0.927,0.637 1.505,2.72 0.058,3.762 -1.446,1.041 -10.126,5.381 -11.804,6.828 0,0 -2.025,-0.058 -3.588,-1.505 C 6.283,-2.024 3.201,-0.093 1.301,0.854 0.684,1.161 -0.033,0.688 0,0"
             id="path176"
             style="fill:#7e4e24;fill-opacity:1;fill-rule:nonzero;stroke:none" /></g><g
            id="g178"
            transform="translate(134.2271,222.3525)"><path
             d="m 0,0 c 0,0 10.226,-3.202 21.499,-3.305 11.272,-0.102 15.448,2.118 15.448,2.118"
             id="path180"
             style="fill:none;stroke:#00453d;stroke-width:1;stroke-linecap:round;stroke-linejoin:round;stroke-miterlimit:10;stroke-dasharray:none;stroke-opacity:1" /></g><g
            id="g182"
            transform="translate(156.521,192.0703)"><path
             d="M 0,0 C 0,0 1.562,8.293 7.164,10.479"
             id="path184"
             style="fill:none;stroke:#00453d;stroke-width:1;stroke-linecap:round;stroke-linejoin:round;stroke-miterlimit:10;stroke-dasharray:none;stroke-opacity:1" /></g><g
            id="g186"
            transform="translate(162.4478,219.2949)"><path
             d="m 0,0 c 0,0 1.237,-8.569 -0.54,-12.452 -1.776,-3.883 -3.001,-3.064 -3.001,-3.064 v 11.787"
             id="path188"
             style="fill:none;stroke:#00453d;stroke-width:1;stroke-linecap:round;stroke-linejoin:round;stroke-miterlimit:10;stroke-dasharray:none;stroke-opacity:1" /></g><g
            id="g190"
            transform="translate(133.4927,214.5811)"><path
             d="M 0,0 C 0,0 6.825,0.39 8.056,5.998"
             id="path192"
             style="fill:none;stroke:#00453d;stroke-width:1;stroke-linecap:round;stroke-linejoin:round;stroke-miterlimit:10;stroke-dasharray:none;stroke-opacity:1" /></g><g
            id="g194"
            transform="translate(143.436,97.9482)"><path
             d="M 0,0 C 0,0 6.414,-2.793 14.441,-0.162"
             id="path196"
             style="fill:none;stroke:#00453d;stroke-width:1;stroke-linecap:round;stroke-linejoin:round;stroke-miterlimit:10;stroke-dasharray:none;stroke-opacity:1" /></g><g
            id="g198"
            transform="translate(169.6392,97.3027)"><path
             d="M 0,0 C 0,0 8.953,-1.731 16.017,1.698"
             id="path200"
             style="fill:none;stroke:#00453d;stroke-width:1;stroke-linecap:round;stroke-linejoin:round;stroke-miterlimit:10;stroke-dasharray:none;stroke-opacity:1" /></g><g
            id="g202"
            transform="translate(157.3257,143.4844)"><path
             d="m 0,0 c -1.292,-1.884 -3.281,-3.09 -5.5,-3.09 -3.912,0 -7.087,3.731 -7.087,8.331 0,4.601 3.175,8.322 7.087,8.322 2.133,0 4.037,-1.101 5.318,-2.851 z"
             id="path204"
             style="fill:#00554f;fill-opacity:1;fill-rule:nonzero;stroke:none" /></g><g
            id="g206"
            transform="translate(181.4946,142.8145)"><path
             d="m 0,0 c -0.545,-0.172 -1.109,-0.258 -1.702,-0.258 -3.902,0 -7.069,3.979 -7.069,8.885 0,4.888 3.147,8.857 7.03,8.886 C -1.186,12.262 -0.583,6.227 0,0"
             id="path208"
             style="fill:#00554f;fill-opacity:1;fill-rule:nonzero;stroke:none" /></g><g
            id="g210"
            transform="translate(135.7554,215.0117)"><path
             d="m 0,0 c 0,0 0.059,-10.208 1.766,-24.555 l 3.96,-47.903 3.26,-45.054"
             id="path212"
             style="fill:none;stroke:#00453d;stroke-width:1;stroke-linecap:round;stroke-linejoin:round;stroke-miterlimit:10;stroke-dasharray:none;stroke-opacity:1" /></g><g
            id="g214"
            transform="translate(158.4087,197.3096)"><path
             d="m 0,0 c 0,0 8.077,-47.228 8.282,-51.326 0.205,-4.099 5.363,-49.326 5.363,-49.326"
             id="path216"
             style="fill:none;stroke:#00453d;stroke-width:1;stroke-linecap:round;stroke-linejoin:round;stroke-miterlimit:10;stroke-dasharray:none;stroke-opacity:1" /></g><g
            id="g218"
            transform="translate(146.3369,249.3848)"><path
             d="M 0,0 C 0,0 -1.086,-3.933 -2.117,-8.851"
             id="path220"
             style="fill:none;stroke:#cb7068;stroke-width:1;stroke-linecap:round;stroke-linejoin:round;stroke-miterlimit:10;stroke-dasharray:none;stroke-opacity:1" /></g><g
            id="g222"
            transform="translate(175.1533,238.0146)"><path
             d="M 0,0 C 0,0 4.084,2.01 7.25,1.699"
             id="path224"
             style="fill:none;stroke:#cb7068;stroke-width:1;stroke-linecap:round;stroke-linejoin:round;stroke-miterlimit:10;stroke-dasharray:none;stroke-opacity:1" /></g><g
            id="g226"
            transform="translate(128.6914,283.46)"><path
             d="m 0,0 c 0,0 -7.352,-2.568 -7.873,-12.636 -0.521,-10.069 2.604,-18.228 2.604,-18.228 l 18.745,6.944 C 13.476,-23.92 6.832,-3.161 0,0"
             id="path228"
             style="fill:#ff6a6f;fill-opacity:1;fill-rule:nonzero;stroke:none" /></g><g
            id="g230"
            transform="translate(162.394,292.8267)"><path
             d="M 0,0 C 0,0 -0.827,-1.532 -1.442,-2.02"
             id="path232"
             style="fill:none;stroke:#cb7068;stroke-width:1;stroke-linecap:round;stroke-linejoin:round;stroke-miterlimit:10;stroke-dasharray:none;stroke-opacity:1" /></g><g
            id="g234"
            transform="translate(162.8716,289.2681)"><path
             d="M 0,0 C 0,0 -0.683,-1.305 -1.199,-1.562"
             id="path236"
             style="fill:none;stroke:#cb7068;stroke-width:1;stroke-linecap:round;stroke-linejoin:round;stroke-miterlimit:10;stroke-dasharray:none;stroke-opacity:1" /></g><g
            id="g238"
            transform="translate(162.6543,286.3604)"><path
             d="M 0,0 -0.981,-1.011"
             id="path240"
             style="fill:none;stroke:#cb7068;stroke-width:1;stroke-linecap:round;stroke-linejoin:round;stroke-miterlimit:10;stroke-dasharray:none;stroke-opacity:1" /></g><g
            id="g242"
            transform="translate(174.2222,83.3711)"><path
             d="m 0,0 c 0,0 2.665,-0.256 7.481,-0.563 4.816,-0.308 11.272,-0.872 14.09,0"
             id="path244"
             style="fill:none;stroke:#cb7068;stroke-width:1;stroke-linecap:round;stroke-linejoin:round;stroke-miterlimit:10;stroke-dasharray:none;stroke-opacity:1" /></g><g
            id="g246"
            transform="translate(146.7417,81.2686)"><path
             d="m 0,0 c 0,0 1.845,-3.056 6.354,-3.738 4.509,-0.684 9.018,0.341 9.018,0.341"
             id="path248"
             style="fill:none;stroke:#cb7068;stroke-width:1;stroke-linecap:round;stroke-linejoin:round;stroke-miterlimit:10;stroke-dasharray:none;stroke-opacity:1" /></g><g
            id="g250"
            transform="translate(162.4072,297.6548)"><path
             d="m 0,0 c 0,0 -0.021,0.325 -0.591,0 -0.571,-0.325 -1.787,-4.363 -2.453,-5.101 -0.666,-0.737 -3.407,-2.516 -3.407,-2.516 0,0 0.615,1.614 0,3.055 -0.615,1.441 -1.339,1.092 -1.339,1.092 0,0 -1.354,-2.905 -1.327,-5.153 0.027,-2.248 1.103,-5.796 1.103,-5.796"
             id="path252"
             style="fill:none;stroke:#cb7068;stroke-width:1;stroke-linecap:round;stroke-linejoin:round;stroke-miterlimit:10;stroke-dasharray:none;stroke-opacity:1" /></g><g
            id="g254"
            transform="translate(138.5098,306.9204)"><path
             d="M 0,0 C 0,0 2.869,-2.562 3.228,-4.918"
             id="path256"
             style="fill:none;stroke:#cb7068;stroke-width:1;stroke-linecap:round;stroke-linejoin:round;stroke-miterlimit:10;stroke-dasharray:none;stroke-opacity:1" /></g><g
            id="g258"
            transform="translate(139.3296,302.5142)"><path
             d="M 0,0 C 0,0 0.435,1.588 1.319,1.947"
             id="path260"
             style="fill:none;stroke:#cb7068;stroke-width:1;stroke-linecap:round;stroke-linejoin:round;stroke-miterlimit:10;stroke-dasharray:none;stroke-opacity:1" /></g><g
            id="g262"
            transform="translate(124.1631,255.6221)"><path
             d="M 0,0 15.781,5.646"
             id="path264"
             style="fill:none;stroke:#ff8e97;stroke-width:1;stroke-linecap:butt;stroke-linejoin:miter;stroke-miterlimit:10;stroke-dasharray:none;stroke-opacity:1" /></g><g
            id="g266"
            transform="translate(139.3296,323.1973)"><path
             d="M 0,0 H 2.838"
             id="path268"
             style="fill:none;stroke:#005c77;stroke-width:1;stroke-linecap:round;stroke-linejoin:round;stroke-miterlimit:10;stroke-dasharray:none;stroke-opacity:1" /></g><g
            id="g270"
            transform="translate(132.8735,315.7505)"><path
             d="M 0,0 1.367,-0.341"
             id="path272"
             style="fill:none;stroke:#005c77;stroke-width:1;stroke-linecap:round;stroke-linejoin:round;stroke-miterlimit:10;stroke-dasharray:none;stroke-opacity:1" /></g><g
            id="g274"
            transform="translate(164.4585,319.3711)"><path
             d="m 0,0 c 0,0 -0.467,-2.493 -3.473,-3.347 -3.006,-0.854 -4.419,0.488 -5.526,-0.232 -1.106,-0.719 -3.338,-5.092 -9.238,-3.711 0,0 -0.273,-7.688 -2.455,-7.936 -2.183,-0.248 -1.072,3.63 -3.643,4.56"
             id="path276"
             style="fill:none;stroke:#005c77;stroke-width:1;stroke-linecap:round;stroke-linejoin:round;stroke-miterlimit:10;stroke-dasharray:none;stroke-opacity:1" /></g><g
            id="g278"
            transform="translate(159.8247,327.4155)"><path
             d="M 0,0 C 0,0 1.398,-0.262 1.756,0.615"
             id="path280"
             style="fill:none;stroke:#005c77;stroke-width:1;stroke-linecap:round;stroke-linejoin:round;stroke-miterlimit:10;stroke-dasharray:none;stroke-opacity:1" /></g><g
            id="g282"
            transform="translate(149.2695,328.0303)"><path
             d="M 0,0 C 0,0 0.513,-0.396 1.691,-0.326"
             id="path284"
             style="fill:none;stroke:#005c77;stroke-width:1;stroke-linecap:round;stroke-linejoin:round;stroke-miterlimit:10;stroke-dasharray:none;stroke-opacity:1" /></g><g
            id="g286"
            transform="translate(144.7607,315.0161)"><path
             d="M 0,0 0.82,-0.512"
             id="path288"
             style="fill:none;stroke:#005c77;stroke-width:1;stroke-linecap:round;stroke-linejoin:round;stroke-miterlimit:10;stroke-dasharray:none;stroke-opacity:1" /></g><g
            id="g290"
            transform="translate(151.729,320.1914)"><path
             d="M 0,0 C 0,0 1.093,0.956 3.211,0.546"
             id="path292"
             style="fill:none;stroke:#005c77;stroke-width:1;stroke-linecap:round;stroke-linejoin:round;stroke-miterlimit:10;stroke-dasharray:none;stroke-opacity:1" /></g><g
            id="g294"
            transform="translate(124.5254,321.1582)"><path
             d="m 0,0 c -7.243,1.768 -12.265,5.058 -15.67,8.313 8.863,6.764 14.587,17.434 14.587,29.445 0,20.447 -16.576,37.022 -37.023,37.022 -20.447,0 -37.022,-16.575 -37.022,-37.022 0,-20.447 16.575,-37.023 37.022,-37.023 2.86,0 5.64,0.335 8.314,0.949 C -13.664,-4.978 0,0 0,0"
             id="path296"
             style="fill:#ffe1d5;fill-opacity:1;fill-rule:nonzero;stroke:none" /></g><g
            id="g298"
            transform="translate(96.3105,338.8828)"><path
             d="m 0,0 c 0.28,-3.875 -2.631,-7.239 -6.568,-7.524 -3.876,-0.28 -7.24,2.631 -7.52,6.506 -0.285,3.937 2.627,7.302 6.502,7.581 C -3.648,6.848 -0.285,3.938 0,0 m -20.999,30.41 c -3.031,1.203 -4.19,4.895 -2.381,7.609 2.108,3.162 6.029,6.551 13.196,7.069 C -0.956,45.755 7.723,40.322 8.35,31.647 8.786,25.619 4.561,21.603 -1.163,18.654 c -1.356,-0.386 -1.81,-2.096 -1.898,-3.863 -0.127,-2.553 -2.177,-4.594 -4.727,-4.779 -2.812,-0.203 -5.256,1.912 -5.46,4.724 l -0.116,1.614 c -0.196,2.707 -0.233,4.93 2.407,6.915 3.58,2.67 7.073,3.108 6.757,7.476 -0.213,2.953 -2.579,4.884 -5.347,4.684 -2.525,-0.182 -4.224,-1.51 -5.307,-3.117 -1.348,-1.998 -3.905,-2.787 -6.145,-1.898"
             id="path300"
             style="fill:#ff9990;fill-opacity:1;fill-rule:nonzero;stroke:none" /></g><g
            id="g302"
            transform="translate(407.626,86.1553)"><path
             d="m 0,0 c 0.106,-4.155 -18.795,-8.01 -42.218,-8.61 -23.423,-0.601 -42.497,2.281 -42.603,6.436 -0.107,4.155 18.795,8.01 42.217,8.611 C -19.181,7.036 -0.106,4.154 0,0"
             id="path304"
             style="fill:#d5938b;fill-opacity:1;fill-rule:nonzero;stroke:none" /></g><g
            id="g306"
            transform="translate(358.9141,139.3945)"><path
             d="m 0,0 c 0,0 1.129,-3.01 0.131,-15.664 -0.998,-12.655 -1.896,-26.784 -1.896,-26.784 l -8.052,-1.188 -4.556,42.666 z"
             id="path308"
             style="fill:#ffa18b;fill-opacity:1;fill-rule:nonzero;stroke:none" /></g><g
            id="g310"
            transform="translate(387.0391,139.0488)"><path
             d="m 0,0 c 0,0 1.47,-2.858 1.945,-15.544 0.477,-12.685 1.222,-26.822 1.222,-26.822 l -8.19,0.32 -9.141,39.417 z"
             id="path312"
             style="fill:#ffa18b;fill-opacity:1;fill-rule:nonzero;stroke:none" /></g><g
            id="g314"
            transform="translate(341.2852,208.7852)"><path
             d="m 0,0 1.875,-76.602 c 3.733,-3.783 17.986,0.12 17.986,0.12 0,0 1.9,68.474 2.077,74.752 0,0 -3.041,10.063 -21.938,1.73"
             id="path316"
             style="fill:#d2505d;fill-opacity:1;fill-rule:nonzero;stroke:none" /></g><g
            id="g318"
            transform="translate(359.2178,195.874)"><path
             d="M 0,0 -1.711,-60.387"
             id="path320"
             style="fill:none;stroke:#bf3d4d;stroke-width:1;stroke-linecap:round;stroke-linejoin:round;stroke-miterlimit:10;stroke-dasharray:none;stroke-opacity:1" /></g><g
            id="g322"
            transform="translate(389.0996,133.5225)"><path
             d="m 0,0 -7.43,71.375 c 0,0 0.635,15.289 -5.608,27.291 L -47.167,98.094 -47.814,75.263 -32.289,68.91 C -28.87,53.586 -16.625,-0.87 -16.625,-0.87 -9.717,-5.593 0,0 0,0"
             id="path324"
             style="fill:#ff6a6f;fill-opacity:1;fill-rule:nonzero;stroke:none" /></g><g
            id="g326"
            transform="translate(347.1689,289.3345)"><path
             d="m 0,0 -25.98,-26.891 6.194,-9.598 c 0,0 14.786,6.695 18.291,13.016 C 2.01,-17.152 0,0 0,0"
             id="path328"
             style="fill:#ffd274;fill-opacity:1;fill-rule:nonzero;stroke:none" /></g><g
            id="g330"
            transform="translate(358.6279,292.6641)"><path
             d="m 0,0 c -0.284,-0.232 -7.249,-1.513 -10.516,-2.714 -3.267,-1.201 -6.922,-12.83 -7.399,-19.837 -0.476,-7.008 1.22,-38.497 1.22,-38.497 2.99,-4.304 34.129,0.572 34.129,0.572 0,0 9.245,30.421 9.155,46.826 -0.028,5.174 -1.606,8.544 -1.606,8.544 L 10.845,0.038 Z"
             id="path332"
             style="fill:#006a66;fill-opacity:1;fill-rule:nonzero;stroke:none" /></g><g
            id="g334"
            transform="translate(348.6484,316.4795)"><path
             d="m 0,0 c 0,0 0.384,-5.985 -1.573,-12.027 -1.957,-6.041 -3.033,-7.058 -2.979,-7.306 0.055,-0.248 1.142,-1.012 2.874,-0.725 1.733,0.287 1.897,-0.457 3.772,-1.68 1.874,-1.224 2.783,0.413 4.169,-0.673 1.385,-1.086 4.45,-1.604 5.133,-1.377 0.685,0.226 -1.264,9.705 -1.264,9.705 L 5.396,1.325 Z"
             id="path336"
             style="fill:#00425c;fill-opacity:1;fill-rule:nonzero;stroke:none" /></g><g
            id="g338"
            transform="translate(369.418,292.8735)"><path
             d="m 0,0 c 0.678,-2.172 -0.514,-4.47 -2.634,-5.296 -1.397,-0.544 -3.048,-0.964 -4.755,-0.916 -0.072,0.002 -0.143,0.005 -0.213,0.009 -2.901,0.152 -4.911,3.08 -3.92,5.811 0.093,0.259 0.179,0.518 0.259,0.778 0.885,2.92 0.902,5.803 0.902,5.803 l 10.104,4.517 C -0.918,8.211 -0.997,5.898 -0.795,3.905 -0.646,2.401 -0.336,1.08 0,0"
             id="path340"
             style="fill:#ffa18b;fill-opacity:1;fill-rule:nonzero;stroke:none" /></g><g
            id="g342"
            transform="translate(368.623,296.7788)"><path
             d="m 0,0 c -1.957,-1.674 -5.443,-3.761 -10.468,-3.519 0.885,2.919 0.902,5.803 0.902,5.803 L 0.538,6.8 C -0.123,4.306 -0.202,1.993 0,0"
             id="path344"
             style="fill:#cb7068;fill-opacity:1;fill-rule:nonzero;stroke:none" /></g><g
            id="g346"
            transform="translate(376.4736,312.7964)"><path
             d="m 0,0 c -1.448,0.648 -2.714,-0.094 -3.563,-0.898 0.443,2.322 0.685,4.843 0.642,7.571 -0.132,8.379 -15.756,9.069 -19.497,7.45 -3.741,-1.619 -4.004,-11.646 -4.009,-13.251 0,0 -0.817,-9.277 3.228,-14.318 4.045,-5.042 11.961,-3.911 14.924,0.685 0.682,1.059 1.339,2.221 1.948,3.478 0.679,-0.115 2.886,-0.303 5.093,1.558 C 1.415,-5.491 2.646,-1.184 0,0"
             id="path348"
             style="fill:#ffa18b;fill-opacity:1;fill-rule:nonzero;stroke:none" /></g><g
            id="g350"
            transform="translate(354.3877,328.1372)"><path
             d="m 0,0 c 0,0 -2.194,0.437 -4.14,-3.019 -1.946,-3.456 -2.739,-7.56 -4.425,-8.374 0,0 3.039,-1.441 5.009,-1.435 0,0 1.221,3.969 2.675,5.282 0,0 -0.996,-4.714 -0.973,-6.07 0,0 5.015,-1.249 7.239,-1.035 l 1.285,4.058 0.454,-4.152 c 0,0 2.247,-0.495 4.713,-0.429 l 1.277,3.782 c 0,0 -0.772,-5.521 1.227,-6.686 0,0 -0.331,-2.726 0.868,-4.151 0,0 2.049,6.021 5.206,5.501 3.157,-0.521 1.189,-5.524 -0.743,-6.677 -1.933,-1.153 -3.945,-1.18 -3.945,-1.18 0,0 -1.222,-2.377 -1.489,-2.82 0,0 -0.557,-4.534 0.267,-6.637 0.824,-2.102 3.501,-1.415 4.161,-0.949 0.659,0.467 1.816,-0.282 3.231,-0.068 1.415,0.214 1.466,1.205 2.275,1.205 0.807,0 1.866,-0.145 2.378,0.811 0,0 0.259,0.693 1.796,0.588 1.536,-0.105 3.036,0.671 3.569,2.094 0,0 -4.573,3.27 -3.86,11.028 0.713,7.758 -0.504,11.171 -2.567,12.562 0,0 -0.609,5.334 -8.621,8.702 C 8.856,5.299 2.665,2.758 0,0"
             id="path352"
             style="fill:#00425c;fill-opacity:1;fill-rule:nonzero;stroke:none" /></g><g
            id="g354"
            transform="translate(383.6113,287.5581)"><path
             d="m 0,0 c 0,0 -3.456,-4.613 -4.608,-10.493 -1.153,-5.88 1.875,-9.907 1.875,-9.907 l 18.253,-18.748 6.623,7.696 c 0,0 -6.404,11.144 -13.168,21.19 C 2.211,-0.216 0,0 0,0"
             id="path356"
             style="fill:#ffd274;fill-opacity:1;fill-rule:nonzero;stroke:none" /></g><g
            id="g358"
            transform="translate(327.2373,258.5771)"><path
             d="m 0,0 c -1.125,5.716 -11.713,21.685 -14.435,25.722 -0.061,1.371 -1.134,3.24 -1.687,4.118 -0.547,2.498 -1.265,7.062 -1.878,5.452 -0.528,-1.387 -0.385,-3.41 -0.254,-4.482 l -5.314,1.391 c -0.866,0.326 -3.365,1.193 -4.476,0.742 -0.913,-0.369 1.707,-1.387 3.515,-2.012 l -0.133,-0.33 c -1.068,0.403 -3.86,1.375 -4.946,0.935 -1.079,-0.437 2.778,-1.779 4.394,-2.308 l -0.244,-0.607 c -0.179,0.072 -3.444,1.388 -4.763,0.854 -1.039,-0.421 2.496,-1.68 4.203,-2.246 l -0.155,-0.386 c -1.066,0.378 -3.125,1.005 -4.105,0.608 -1.355,-0.549 5.076,-2.526 5.076,-2.526 l 5.255,-2.314 c 1.103,-3.941 6.426,-22.54 9.62,-26.26 3.577,-4.166 7.023,-4.264 8.139,-4.049 C -1.074,-7.483 1.292,-6.565 0,0"
             id="path360"
             style="fill:#ffa18b;fill-opacity:1;fill-rule:nonzero;stroke:none" /></g><g
            id="g362"
            transform="translate(427.6992,281.686)"><path
             d="M 0,0 C -0.956,0.452 -3.048,-0.058 -4.133,-0.375 L -4.267,0.021 C -2.529,0.488 1.07,1.545 0.058,2.024 -1.229,2.631 -4.563,1.503 -4.746,1.44 l -0.209,0.621 c 1.642,0.436 5.57,1.558 4.518,2.056 -1.06,0.5 -3.903,-0.312 -4.992,-0.655 L -5.542,3.8 c 1.84,0.522 4.513,1.389 3.622,1.81 -1.084,0.512 -3.628,-0.211 -4.51,-0.488 l -5.384,-1.088 c 0.19,1.063 0.449,3.075 0,4.489 -0.522,1.643 -1.497,-2.874 -2.184,-5.336 -0.603,-0.846 -1.779,-2.651 -1.919,-4.016 l 0.052,-0.038 -12.703,-32.409 c 3.823,-3.927 8.996,-4.196 11.077,-0.313 1.803,3.366 6.882,24.312 8.201,29.828 l 4.079,1.526 c 0,0 6.533,1.61 5.211,2.235"
             id="path364"
             style="fill:#ffa18b;fill-opacity:1;fill-rule:nonzero;stroke:none" /></g><g
            id="g366"
            transform="translate(341.1631,92.7939)"><path
             d="m 0,0 c -3.92,-2.236 -7.14,-1.885 -7.77,-4.532 -0.362,-1.524 5.065,-2.182 8.499,-2.28 3.435,-0.097 7.699,0.957 10.729,1.374 3.03,0.417 5.226,0.689 5.612,1.182 0.388,0.491 -0.024,6.665 -0.247,7.678 -0.222,1.013 -0.788,1.49 -0.788,1.49 0,0 -1.452,-0.672 -4.23,-1.055 C 9.027,3.475 9.406,5.187 7.742,4.759 6.587,4.461 3.92,2.236 0,0"
             id="path368"
             style="fill:#7e4e24;fill-opacity:1;fill-rule:nonzero;stroke:none" /></g><g
            id="g370"
            transform="translate(381.0205,98.1865)"><path
             d="m 0,0 c 0,0 -1.167,-3.974 -2.117,-7.888 -0.949,-3.913 -3.03,-6.369 -2.827,-8.051 0.204,-1.683 1.348,-2.721 3.359,-2.779 2.01,-0.056 5.119,0.191 7.361,2.391 2.243,2.2 3.367,6.36 3.819,7.521 0.452,1.16 1.737,5.112 1.753,5.633 0.014,0.522 -2.422,6.786 -2.422,6.786 0,0 -0.913,-3.152 -2.029,-4.043 C 5.782,-1.32 3.349,2.089 0,0"
             id="path372"
             style="fill:#7e4e24;fill-opacity:1;fill-rule:nonzero;stroke:none" /></g><g
            id="g374"
            transform="translate(356.4756,292.1182)"><path
             d="m 0,0 c 0,0 -1.575,-1.397 -0.319,-4.098 1.255,-2.701 7.732,-4.486 12.038,-2.049 4.306,2.437 4.979,5.384 4.979,5.384"
             id="path376"
             style="fill:none;stroke:#00453d;stroke-width:1;stroke-linecap:round;stroke-linejoin:round;stroke-miterlimit:10;stroke-dasharray:none;stroke-opacity:1" /></g><g
            id="g378"
            transform="translate(343.7236,261.7256)"><path
             d="M 0,0 C 0,0 7.857,0.195 13.073,-0.37 18.29,-0.936 25.146,-3.18 28.518,-3.275"
             id="path380"
             style="fill:none;stroke:#00453d;stroke-width:1;stroke-linecap:round;stroke-linejoin:round;stroke-miterlimit:10;stroke-dasharray:none;stroke-opacity:1" /></g><g
            id="g382"
            transform="translate(341.8398,228.3516)"><path
             d="m 0,0 c 0,0 1.985,-1.628 11.271,-1.96 9.286,-0.331 24.4,2.671 24.4,2.671"
             id="path384"
             style="fill:none;stroke:#ff8e97;stroke-width:1;stroke-linecap:round;stroke-linejoin:round;stroke-miterlimit:10;stroke-dasharray:none;stroke-opacity:1" /></g><g
            id="g386"
            transform="translate(347.0684,225.4014)"><path
             d="M 0,0 C 0,0 0.177,-8.244 1.951,-13.162 3.726,-18.08 6.49,-19.389 6.49,-19.389 L 4.109,-2.099"
             id="path388"
             style="fill:none;stroke:#ff8e97;stroke-width:1;stroke-linecap:round;stroke-linejoin:round;stroke-miterlimit:10;stroke-dasharray:none;stroke-opacity:1" /></g><g
            id="g390"
            transform="translate(368.9375,227.624)"><path
             d="M 0,0 C 0,0 2.841,-4.49 6.888,-5.225"
             id="path392"
             style="fill:none;stroke:#ff8e97;stroke-width:1;stroke-linecap:round;stroke-linejoin:round;stroke-miterlimit:10;stroke-dasharray:none;stroke-opacity:1" /></g><g
            id="g394"
            transform="translate(375.4893,228.6855)"><path
             d="m 0,0 c 0,0 1.169,-0.979 2.525,-18.24 1.357,-17.261 8.54,-74.874 8.54,-74.874"
             id="path396"
             style="fill:none;stroke:#ff8e97;stroke-width:1;stroke-linecap:round;stroke-linejoin:round;stroke-miterlimit:10;stroke-dasharray:none;stroke-opacity:1" /></g><g
            id="g398"
            transform="translate(371.9971,134.7754)"><path
             d="M 0,0 C 0,0 10.409,-1.535 16.81,1.559"
             id="path400"
             style="fill:none;stroke:#ff8e97;stroke-width:1;stroke-linecap:round;stroke-linejoin:round;stroke-miterlimit:10;stroke-dasharray:none;stroke-opacity:1" /></g><g
            id="g402"
            transform="translate(343.0908,135.0127)"><path
             d="m 0,0 c 0,0 2.714,-1.26 8.16,-0.799 5.446,0.461 9.992,1.563 9.992,1.563"
             id="path404"
             style="fill:none;stroke:#bf3d4d;stroke-width:1;stroke-linecap:round;stroke-linejoin:round;stroke-miterlimit:10;stroke-dasharray:none;stroke-opacity:1" /></g><g
            id="g406"
            transform="translate(383.1543,283.2915)"><path
             d="M 0,0 C 0,0 -3.213,-8.768 -1.439,-14.619"
             id="path408"
             style="fill:none;stroke:#fcb455;stroke-width:1;stroke-linecap:round;stroke-linejoin:round;stroke-miterlimit:10;stroke-dasharray:none;stroke-opacity:1" /></g><g
            id="g410"
            transform="translate(400.8936,258.0825)"><path
             d="M 0,0 C 0,0 -1.784,-4.973 -1.726,-8.357"
             id="path412"
             style="fill:none;stroke:#fcb455;stroke-width:1;stroke-linecap:round;stroke-linejoin:round;stroke-miterlimit:10;stroke-dasharray:none;stroke-opacity:1" /></g><g
            id="g414"
            transform="translate(327.3213,262.9351)"><path
             d="M 0,0 C 0,0 2.494,-2.429 2.366,-6.936"
             id="path416"
             style="fill:none;stroke:#fcb455;stroke-width:1;stroke-linecap:round;stroke-linejoin:round;stroke-miterlimit:10;stroke-dasharray:none;stroke-opacity:1" /></g><g
            id="g418"
            transform="translate(338.873,276.2422)"><path
             d="M 0,0 C 0,0 -0.937,-7.765 -0.331,-11.677"
             id="path420"
             style="fill:none;stroke:#fcb455;stroke-width:1;stroke-linecap:round;stroke-linejoin:round;stroke-miterlimit:10;stroke-dasharray:none;stroke-opacity:1" /></g><g
            id="g422"
            transform="translate(418.4092,277.9248)"><path
             d="M 0,0 -2.414,-0.637"
             id="path424"
             style="fill:none;stroke:#cb7068;stroke-width:1;stroke-linecap:round;stroke-linejoin:round;stroke-miterlimit:10;stroke-dasharray:none;stroke-opacity:1" /></g><g
            id="g426"
            transform="translate(307.29,281.1885)"><path
             d="M 0,0 1.97,-0.827"
             id="path428"
             style="fill:none;stroke:#cb7068;stroke-width:1;stroke-linecap:round;stroke-linejoin:round;stroke-miterlimit:10;stroke-dasharray:none;stroke-opacity:1" /></g><g
            id="g430"
            transform="translate(308.9834,289.3867)"><path
             d="M 0,0 C 0,0 -0.265,-2.807 0.416,-4.108"
             id="path432"
             style="fill:none;stroke:#cb7068;stroke-width:1;stroke-linecap:round;stroke-linejoin:round;stroke-miterlimit:10;stroke-dasharray:none;stroke-opacity:1" /></g><g
            id="g434"
            transform="translate(303.0703,289.8662)"><path
             d="M 0,0 -2.239,-4.857"
             id="path436"
             style="fill:none;stroke:#cb7068;stroke-width:1;stroke-linecap:round;stroke-linejoin:round;stroke-miterlimit:10;stroke-dasharray:none;stroke-opacity:1" /></g><g
            id="g438"
            transform="translate(415.7656,285.4941)"><path
             d="M 0,0 C 0,0 0.316,-1.496 -0.392,-2.962"
             id="path440"
             style="fill:none;stroke:#cb7068;stroke-width:1;stroke-linecap:round;stroke-linejoin:round;stroke-miterlimit:10;stroke-dasharray:none;stroke-opacity:1" /></g><g
            id="g442"
            transform="translate(421.6787,286.147)"><path
             d="M 0,0 1.958,-5.079"
             id="path444"
             style="fill:none;stroke:#cb7068;stroke-width:1;stroke-linecap:round;stroke-linejoin:round;stroke-miterlimit:10;stroke-dasharray:none;stroke-opacity:1" /></g><g
            id="g446"
            transform="translate(334.5146,88.6582)"><path
             d="M 0,0 C 0,0 1.466,-1.34 9.754,-0.687 18.042,-0.032 22.86,1.197 22.86,1.197"
             id="path448"
             style="fill:none;stroke:#cb7068;stroke-width:1;stroke-linecap:round;stroke-linejoin:round;stroke-miterlimit:10;stroke-dasharray:none;stroke-opacity:1" /></g><g
            id="g450"
            transform="translate(377.0352,81.7813)"><path
             d="m 0,0 c 0,0 5.311,-0.697 8.67,2.078 3.359,2.776 5.661,11.663 5.661,11.663"
             id="path452"
             style="fill:none;stroke:#cb7068;stroke-width:1;stroke-linecap:round;stroke-linejoin:round;stroke-miterlimit:10;stroke-dasharray:none;stroke-opacity:1" /></g><g
            id="g454"
            transform="translate(379.876,321.3667)"><path
             d="M 0,0 -2.828,-0.313"
             id="path456"
             style="fill:none;stroke:#005c77;stroke-width:1;stroke-linecap:round;stroke-linejoin:round;stroke-miterlimit:10;stroke-dasharray:none;stroke-opacity:1" /></g><g
            id="g458"
            transform="translate(350.9941,324.1328)"><path
             d="M 0,0 C 0,0 -1.181,-1.863 -1.578,-3.236"
             id="path460"
             style="fill:none;stroke:#005c77;stroke-width:1;stroke-linecap:round;stroke-linejoin:round;stroke-miterlimit:10;stroke-dasharray:none;stroke-opacity:1" /></g><g
            id="g462"
            transform="translate(354.3877,328.1372)"><path
             d="M 0,0 1.69,-0.048"
             id="path464"
             style="fill:none;stroke:#005c77;stroke-width:1;stroke-linecap:round;stroke-linejoin:round;stroke-miterlimit:10;stroke-dasharray:none;stroke-opacity:1" /></g><g
            id="g466"
            transform="translate(357.751,321.9937)"><path
             d="M 0,0 -0.565,-2.035"
             id="path468"
             style="fill:none;stroke:#005c77;stroke-width:1;stroke-linecap:round;stroke-linejoin:round;stroke-miterlimit:10;stroke-dasharray:none;stroke-opacity:1" /></g><g
            id="g470"
            transform="translate(364.2344,320.7847)"><path
             d="M 0,0 0.536,-1.501"
             id="path472"
             style="fill:none;stroke:#005c77;stroke-width:1;stroke-linecap:round;stroke-linejoin:round;stroke-miterlimit:10;stroke-dasharray:none;stroke-opacity:1" /></g><g
            id="g474"
            transform="translate(379.3955,318.8687)"><path
             d="M 0,0 C 0,0 2.476,-3.094 1.967,-8.36"
             id="path476"
             style="fill:none;stroke:#005c77;stroke-width:1;stroke-linecap:round;stroke-linejoin:round;stroke-miterlimit:10;stroke-dasharray:none;stroke-opacity:1" /></g><g
            id="g478"
            transform="translate(367.2842,329.207)"><path
             d="M 0,0 C 0,0 7.254,-0.872 10.087,-5.821"
             id="path480"
             style="fill:none;stroke:#005c77;stroke-width:1;stroke-linecap:round;stroke-linejoin:round;stroke-miterlimit:10;stroke-dasharray:none;stroke-opacity:1" /></g><g
            id="g482"
            transform="translate(370.5059,301.7954)"><path
             d="M 0,0 C 0,0 0.726,-5.146 1.847,-7.177"
             id="path484"
             style="fill:none;stroke:#005c77;stroke-width:1;stroke-linecap:round;stroke-linejoin:round;stroke-miterlimit:10;stroke-dasharray:none;stroke-opacity:1" /></g><g
            id="g486"
            transform="translate(373.8232,301.291)"><path
             d="M 0,0 0.799,-2.534"
             id="path488"
             style="fill:none;stroke:#005c77;stroke-width:1;stroke-linecap:round;stroke-linejoin:round;stroke-miterlimit:10;stroke-dasharray:none;stroke-opacity:1" /></g><g
            id="g490"
            transform="translate(378.1172,302.707)"><path
             d="M 0,0 C 0,0 1.196,-3.024 2.224,-4.762"
             id="path492"
             style="fill:none;stroke:#005c77;stroke-width:1;stroke-linecap:round;stroke-linejoin:round;stroke-miterlimit:10;stroke-dasharray:none;stroke-opacity:1" /></g><g
            id="g494"
            transform="translate(348.8096,297.6943)"><path
             d="M 0,0 C 0,0 0.947,2.69 1.106,4.684"
             id="path496"
             style="fill:none;stroke:#005c77;stroke-width:1;stroke-linecap:round;stroke-linejoin:round;stroke-miterlimit:10;stroke-dasharray:none;stroke-opacity:1" /></g><g
            id="g498"
            transform="translate(421.6787,374.5591)"><path
             d="m 0,0 c -16.243,0 -29.41,-13.167 -29.41,-29.411 0,-10.602 5.612,-19.892 14.026,-25.067 -2.674,-2.948 -7.096,-7.117 -14.026,-11.817 0,0 18.152,0.396 28.966,7.485 0.148,-0.002 0.296,-0.011 0.444,-0.011 16.243,0 29.411,13.167 29.411,29.41 C 29.411,-13.167 16.243,0 0,0"
             id="path500"
             style="fill:#ffe1d5;fill-opacity:1;fill-rule:nonzero;stroke:none" /></g><g
            id="g502"
            transform="translate(422.9072,325.1636)"><path
             d="m 0,0 c -0.802,-3.492 -4.277,-5.669 -7.824,-4.854 -3.491,0.801 -5.669,4.277 -4.867,7.769 0.814,3.546 4.29,5.724 7.781,4.922 C -1.362,7.022 0.814,3.547 0,0 m -10.279,32.482 c -2.347,1.881 -2.369,5.449 -0.041,7.351 2.714,2.218 7.087,4.144 13.544,2.661 8.313,-1.91 14.493,-9.046 12.698,-16.861 C 14.675,20.202 9.865,17.806 4.022,16.755 2.723,16.782 1.86,15.397 1.305,13.864 0.501,11.648 -1.857,10.404 -4.154,10.931 h -0.001 c -2.533,0.582 -4.116,3.107 -3.533,5.64 l 0.334,1.454 c 0.56,2.439 1.128,4.409 3.992,5.443 3.877,1.386 7.074,0.826 7.978,4.761 0.611,2.661 -0.952,5.003 -3.446,5.576 -2.274,0.522 -4.13,-0.189 -5.521,-1.312 -1.727,-1.396 -4.195,-1.4 -5.928,-0.011"
             id="path504"
             style="fill:#ff9990;fill-opacity:1;fill-rule:nonzero;stroke:none" /></g></g></g></g></svg>
